<svg width="200" height="71" viewBox="0 0 200 71" fill="none" xmlns="http://www.w3.org/2000/svg">
<g clip-path="url(#clip0_1_141)">
<path d="M100.299 2.09109L91.8497 11.9128L91.7168 12.0672L91.5276 12.0659L79.501 11.977L79.5784 25.7781L79.5796 25.9952L79.445 26.1477L70.8861 35.8439L79.445 45.5398L79.5796 45.6923L79.5784 45.9094L79.501 59.7105L91.5276 59.6216L91.7168 59.6203L91.8497 59.7747L100.299 69.5964L108.749 59.7747L108.881 59.6203L109.071 59.6216L121.097 59.7105L121.02 45.9094L121.019 45.6923L121.153 45.5398L129.712 35.8439L121.153 26.1477L121.019 25.9952L121.02 25.7781L121.097 11.977L109.071 12.0659L108.881 12.0672L108.749 11.9128L100.299 2.09109V2.09109Z" stroke="black" stroke-width="1.02941"/>
<path d="M109.754 27.836C109.67 27.5056 109.261 27.5267 109.217 27.8671C108.962 29.8618 110.435 34.5792 109.909 36.7622C109.905 36.7763 109.902 36.7904 109.898 36.8045C109.784 37.2733 109.183 37.1814 109.178 36.695C109.161 34.8093 108.728 32.7473 107.8 31.4845C104.305 26.7271 108.038 23.217 107.9 22.0792C107.881 21.9248 107.752 21.8373 107.623 21.8869C107.618 21.8891 107.614 21.8905 107.613 21.8917C107.39 22.0325 107.18 22.2036 106.972 22.3699C105.573 23.4854 104.292 24.8273 103.553 26.6342C103.127 27.6732 103.015 28.8326 102.772 29.9353C102.679 30.3549 102.572 30.7702 102.448 31.1792C102.309 31.638 102.114 32.0985 101.805 32.4385C101.667 32.5903 101.498 32.7024 101.31 32.7442C100.819 32.8533 100.559 32.4618 100.466 32.0013C100.206 30.7209 100.397 29.4281 100.494 28.1394C100.886 22.9509 95.9561 22.468 97.7576 14.9025C98.2352 12.8972 91.7839 19.4867 93.9572 25.2201C94.3823 26.3412 94.3431 27.411 93.861 28.4922C93.3473 29.6428 92.7157 30.6849 92.4041 31.945C92.2921 32.398 92.2293 32.8564 92.1798 33.3222C92.1162 33.9212 92.268 34.8216 91.578 34.9773C91.2921 35.0419 90.8957 35.0063 90.6589 34.7917C90.4738 34.6237 90.3714 34.362 90.3105 34.1002C90.025 32.8766 90.0602 31.6388 90.1959 30.3897C90.3151 29.2901 90.3987 27.2188 89.4021 29.2861C86.1912 35.9468 86.3061 44.2428 90.2262 50.4926C91.7333 52.8955 93.6456 54.4271 96.1478 55.1269C101.235 56.5493 107.319 56.1187 110.522 51.1027C111.745 49.1867 112.48 46.8467 112.961 44.555C113.575 41.6274 113.692 38.8462 112.731 36.0053C111.799 33.2483 110.482 30.6857 109.754 27.836Z" fill="black"/>
</g>
<path d="M160.906 36.3438C160.906 31.9255 164.488 28.3438 168.906 28.3438C173.325 28.3438 176.906 31.9255 176.906 36.3438C176.906 40.762 173.325 44.3438 168.906 44.3438C164.488 44.3438 160.906 40.762 160.906 36.3438Z" fill="#8B83F6" stroke="black"/>
<path d="M22.9062 36.3438C22.9062 31.9255 26.488 28.3438 30.9062 28.3438C35.3245 28.3438 38.9062 31.9255 38.9062 36.3438C38.9062 40.762 35.3245 44.3438 30.9062 44.3438C26.488 44.3438 22.9062 40.762 22.9062 36.3438Z" fill="#FB4B4D" stroke="black"/>
<defs>
<clipPath id="clip0_1_141">
<rect width="61" height="70" fill="white" transform="translate(69.4062 0.84375)"/>
</clipPath>
</defs>
</svg>
